<svg width="158" height="25" viewBox="0 0 158 25" fill="none" xmlns="http://www.w3.org/2000/svg">
<path fill-rule="evenodd" clip-rule="evenodd" d="M9.10692 24.4124C8.84878 24.4215 8.59166 24.3755 8.35253 24.2776C8.11339 24.1797 7.89769 24.032 7.71965 23.8444C7.53613 23.6534 7.39303 23.4272 7.29898 23.1793C7.20492 22.9314 7.16186 22.667 7.17238 22.402V4.09153H2.02423C1.75763 4.09866 1.49241 4.05079 1.24502 3.95088C0.997634 3.85098 0.773342 3.70117 0.586055 3.51075C0.394733 3.3237 0.243982 3.09904 0.143241 2.85084C0.0425009 2.60265 -0.00605873 2.33627 0.000603489 2.06839C-0.00533494 1.80344 0.0436334 1.54014 0.144409 1.29516C0.245185 1.05017 0.395573 0.828836 0.586055 0.64516C0.77138 0.4517 0.995175 0.299462 1.24293 0.198312C1.49069 0.0971616 1.75687 0.0493577 2.02423 0.0580008H16.3105C16.5757 0.0608444 16.8376 0.117282 17.0805 0.223939C17.3186 0.328764 17.5346 0.478227 17.7169 0.664305C17.9099 0.850729 18.0626 1.07498 18.1655 1.32312C18.2684 1.57126 18.3193 1.83797 18.315 2.10668C18.3216 2.37099 18.2716 2.63363 18.1684 2.87693C18.0652 3.12023 17.9112 3.33853 17.7169 3.51714C17.5357 3.70133 17.3193 3.84679 17.0805 3.94474C16.8352 4.04961 16.5708 4.1018 16.3041 4.09792H11.1496V22.402C11.1531 22.6683 11.1012 22.9325 10.9971 23.1776C10.893 23.4226 10.739 23.6432 10.5451 23.8252C10.3598 24.0187 10.136 24.1709 9.88821 24.2721C9.64046 24.3732 9.37427 24.421 9.10692 24.4124Z" fill="white"/>
<path fill-rule="evenodd" clip-rule="evenodd" d="M30.5459 0.0197085C31.7363 0.00539429 32.9183 0.222112 34.0268 0.657926C35.1098 1.09443 36.0956 1.74234 36.9269 2.56403C37.7582 3.38573 38.4185 4.36485 38.8695 5.44456C39.3389 6.58566 39.5747 7.80975 39.5631 9.0441V15.3433C39.5742 16.5797 39.3384 17.8058 38.8695 18.9492C38.4196 20.0289 37.7597 21.0077 36.9282 21.8285C36.0966 22.6493 35.1103 23.2956 34.0268 23.7295C32.9236 24.1901 31.7408 24.4287 30.5459 24.4315V20.3342C31.1974 20.3388 31.8444 20.2241 32.455 19.9959C33.0382 19.7779 33.5724 19.446 34.0268 19.0194C34.4927 18.5765 34.8593 18.0391 35.1022 17.443C35.3662 16.7928 35.4981 16.0964 35.4904 15.3944V9.05687C35.4981 8.35281 35.3662 7.65424 35.1022 7.0018C34.8594 6.40385 34.4929 5.86438 34.0268 5.41903C33.5686 5.00064 33.0351 4.67358 32.455 4.45532C31.8444 4.22709 31.1974 4.11246 30.5459 4.11706V0.0197085ZM30.5459 24.4315C29.3571 24.4394 28.1785 24.2117 27.0777 23.7614C25.9983 23.3238 25.0179 22.6727 24.195 21.8468C23.3382 20.9989 22.6606 19.9867 22.2025 18.8704C21.7444 17.7541 21.5152 16.5567 21.5287 15.3497V9.05049C21.5178 7.8497 21.747 6.65891 22.2028 5.54847C22.6586 4.43804 23.3317 3.43048 24.1823 2.58534C25.0039 1.75778 25.9846 1.10638 27.065 0.670688C28.1688 0.234313 29.3468 0.0175443 30.5331 0.0324707V4.09153C29.8816 4.0875 29.2348 4.20211 28.6241 4.42979C28.0439 4.64805 27.5104 4.97511 27.0523 5.3935C26.5882 5.84058 26.222 6.37959 25.9768 6.97627C25.715 7.62915 25.5852 8.32771 25.595 9.03134V15.3688C25.5852 16.0704 25.715 16.7669 25.9768 17.4175C26.2219 18.0124 26.5882 18.5493 27.0523 18.9939C27.5081 19.4311 28.047 19.7719 28.6368 19.9959C29.2475 20.2236 29.8943 20.3382 30.5459 20.3342V24.4315Z" fill="white"/>
<path fill-rule="evenodd" clip-rule="evenodd" d="M53.2066 24.4124C52.9485 24.4215 52.6914 24.3756 52.4523 24.2777C52.2131 24.1798 51.9974 24.0321 51.8194 23.8444C51.6359 23.6534 51.4928 23.4272 51.3987 23.1793C51.3047 22.9315 51.2616 22.667 51.2721 22.402V4.09157H46.124C45.857 4.09588 45.592 4.04633 45.3445 3.94587C45.097 3.8454 44.8722 3.69607 44.6835 3.50674C44.4947 3.31741 44.3458 3.09196 44.2456 2.84378C44.1454 2.5956 44.096 2.32975 44.1003 2.06204C44.0944 1.79709 44.1434 1.53379 44.2441 1.28881C44.3449 1.04382 44.4953 0.822488 44.6858 0.638812C44.8711 0.445353 45.0949 0.293115 45.3427 0.191964C45.5904 0.0908139 45.8566 0.04301 46.124 0.0516532H60.4102C60.6754 0.0544967 60.9373 0.110935 61.1802 0.217591C61.4184 0.322416 61.6344 0.471884 61.8166 0.657963C62.0096 0.844386 62.1623 1.06864 62.2652 1.31677C62.3681 1.56491 62.419 1.83162 62.4148 2.10033C62.4213 2.36464 62.3713 2.62729 62.2681 2.87058C62.1649 3.11388 62.011 3.33218 61.8166 3.51079C61.6355 3.69498 61.419 3.84045 61.1802 3.9384C60.935 4.04327 60.6705 4.09545 60.4039 4.09157H55.2494V22.3956C55.2529 22.662 55.2009 22.9262 55.0968 23.1712C54.9927 23.4163 54.8388 23.6369 54.6448 23.8189C54.4601 24.0135 54.2365 24.1669 53.9887 24.2692C53.7409 24.3714 53.4745 24.4202 53.2066 24.4124Z" fill="white"/>
<path fill-rule="evenodd" clip-rule="evenodd" d="M70.0002 24.323C69.6777 24.3272 69.3666 24.2034 69.1347 23.9784C69.0221 23.8694 68.9329 23.7384 68.8727 23.5935C68.8126 23.4486 68.7826 23.2929 68.7847 23.1359V1.34082C68.7799 1.18067 68.8086 1.02128 68.8689 0.872896C68.9292 0.724514 69.0197 0.590415 69.1347 0.47922C69.3697 0.262139 69.6775 0.141633 69.997 0.141633C70.3165 0.141633 70.6243 0.262139 70.8593 0.47922C70.9743 0.590415 71.0649 0.724514 71.1251 0.872896C71.1854 1.02128 71.2141 1.18067 71.2093 1.34082V11.8267H83.2174V1.34082C83.2156 1.1818 83.2469 1.02417 83.3094 0.878004C83.3719 0.731839 83.4641 0.600362 83.5801 0.491987C83.6914 0.376721 83.825 0.285538 83.9727 0.224068C84.1205 0.162599 84.2792 0.132148 84.4392 0.134587C84.5978 0.131999 84.7554 0.16143 84.9025 0.221132C85.0496 0.280835 85.1832 0.369589 85.2954 0.482117C85.4076 0.594646 85.4961 0.728652 85.5556 0.876168C85.6151 1.02368 85.6445 1.1817 85.6419 1.34082V23.1359C85.6429 23.2933 85.6117 23.4492 85.5504 23.5941C85.4892 23.7389 85.399 23.8697 85.2855 23.9784C85.1718 24.0912 85.0365 24.1799 84.8878 24.2391C84.7391 24.2984 84.58 24.3269 84.4201 24.323C84.2631 24.3258 84.1073 24.2966 83.9618 24.2374C83.8164 24.1782 83.6844 24.0901 83.5737 23.9784C83.4603 23.8697 83.3701 23.7389 83.3088 23.5941C83.2476 23.4492 83.2164 23.2933 83.2174 23.1359V14.2583H71.1838V23.1359C71.186 23.2929 71.156 23.4486 71.0958 23.5935C71.0356 23.7384 70.9465 23.8694 70.8338 23.9784C70.6103 24.1962 70.3118 24.3196 70.0002 24.323Z" fill="white"/>
<path fill-rule="evenodd" clip-rule="evenodd" d="M102.085 24.4507V21.9999C103.79 22.0144 105.432 21.3592 106.661 20.1746C107.23 19.622 107.678 18.957 107.978 18.2217C108.292 17.4766 108.452 16.6755 108.449 15.8667V8.60374C108.451 7.79915 108.291 7.00245 107.978 6.26147C107.681 5.52498 107.232 4.85957 106.661 4.30852C106.069 3.72932 105.371 3.26994 104.605 2.95551C103.797 2.62659 102.932 2.46381 102.06 2.47684V0.000553715C103.23 -0.0124695 104.391 0.204349 105.477 0.638772C106.538 1.06885 107.503 1.70673 108.315 2.51513C109.11 3.3115 109.747 4.2513 110.193 5.285C110.645 6.32788 110.877 7.4536 110.874 8.59097V15.8156C110.878 16.953 110.646 18.0789 110.193 19.1216C109.75 20.1533 109.112 21.0895 108.315 21.8787C107.487 22.6673 106.524 23.2988 105.471 23.7423C104.401 24.2039 103.25 24.4448 102.085 24.4507ZM102.085 24.4507C100.911 24.4552 99.747 24.2253 98.6618 23.7742C97.6105 23.3351 96.6501 22.7031 95.83 21.9106C95.022 21.1239 94.3737 20.1876 93.921 19.1535C93.4749 18.109 93.2474 16.9838 93.2528 15.8475V8.62288C93.2474 7.48663 93.4749 6.36139 93.921 5.31691C94.3765 4.28062 95.0244 3.34065 95.83 2.54705C96.6411 1.74014 97.6036 1.10241 98.6618 0.670684C99.7514 0.238588 100.914 0.0218708 102.085 0.0324666V2.50875C101.214 2.49761 100.349 2.66032 99.54 2.98741C98.7751 3.30647 98.076 3.76526 97.4782 4.34044C96.9114 4.89627 96.4614 5.56031 96.1546 6.29338C95.837 7.03305 95.6746 7.83032 95.6773 8.63564V15.8986C95.672 16.707 95.8301 17.5081 96.1419 18.2536C96.4503 18.9889 96.905 19.6535 97.4782 20.2065C98.0781 20.7758 98.7769 21.23 99.54 21.5468C100.347 21.8791 101.213 22.0441 102.085 22.0318V24.4507Z" fill="white"/>
<path fill-rule="evenodd" clip-rule="evenodd" d="M120.642 24.2337C120.274 24.242 119.917 24.1148 119.636 23.8763C119.506 23.7562 119.404 23.6085 119.338 23.444C119.272 23.2796 119.244 23.1024 119.254 22.9254C119.243 22.7666 119.271 22.6075 119.337 22.4625C119.402 22.3175 119.503 22.1914 119.63 22.0957C119.937 21.8871 120.304 21.7861 120.674 21.8085H127.756C128.286 21.8056 128.808 21.6903 129.29 21.4702C129.786 21.2458 130.237 20.9322 130.62 20.5448C131.024 20.1423 131.341 19.6598 131.549 19.128C131.771 18.5655 131.884 17.9652 131.88 17.3601C131.886 16.7626 131.765 16.1706 131.523 15.6242C131.294 15.1101 130.96 14.6494 130.543 14.2711C130.144 13.9069 129.68 13.6212 129.175 13.4287C128.68 13.2364 128.154 13.139 127.623 13.1415H124.6C123.73 13.1432 122.867 12.9831 122.054 12.6692C121.274 12.381 120.556 11.9479 119.935 11.3928C119.314 10.8396 118.823 10.1552 118.497 9.38877C118.15 8.59661 117.974 7.73952 117.982 6.87419C117.98 5.97169 118.158 5.07788 118.504 4.24473C118.827 3.43048 119.315 2.69182 119.935 2.07479C120.555 1.48047 121.277 1.00463 122.067 0.670716C122.872 0.329007 123.738 0.155285 124.613 0.16014H131.282C131.658 0.136631 132.03 0.242448 132.338 0.460103C132.468 0.56636 132.572 0.702273 132.639 0.856559C132.707 1.01084 132.736 1.17905 132.726 1.34722C132.734 1.52166 132.704 1.69572 132.636 1.85685C132.569 2.01797 132.467 2.16217 132.338 2.27903C132.038 2.51552 131.662 2.63359 131.282 2.6109H124.167C123.675 2.60832 123.187 2.70829 122.735 2.90448C122.274 3.11309 121.856 3.40517 121.501 3.76607C121.129 4.1383 120.843 4.58684 120.661 5.0808C120.457 5.59258 120.352 6.13815 120.349 6.68911C120.345 7.2318 120.449 7.76984 120.654 8.27189C120.847 8.76 121.135 9.20475 121.501 9.58024C121.856 9.94113 122.274 10.2332 122.735 10.4418C123.185 10.647 123.673 10.7536 124.167 10.7546H127.508C128.4 10.7637 129.284 10.9323 130.117 11.2524C130.924 11.5665 131.664 12.0298 132.3 12.6181C132.92 13.2125 133.418 13.9239 133.763 14.7115C134.115 15.5164 134.294 16.3858 134.292 17.2644C134.296 18.1835 134.111 19.0936 133.751 19.9385C133.405 20.7777 132.9 21.5409 132.262 22.185C131.635 22.8324 130.887 23.3487 130.06 23.704C129.224 24.0677 128.323 24.2545 127.413 24.2529L120.642 24.2337Z" fill="white"/>
<path fill-rule="evenodd" clip-rule="evenodd" d="M148.349 24.3422C148.194 24.3456 148.041 24.3155 147.899 24.2538C147.758 24.1921 147.631 24.1003 147.528 23.9848C147.314 23.7543 147.196 23.4508 147.197 23.1359V2.5662H140.961C140.801 2.56536 140.644 2.53296 140.497 2.47085C140.35 2.40873 140.217 2.31814 140.105 2.20427C139.994 2.09039 139.905 1.95549 139.846 1.80731C139.786 1.65913 139.756 1.5006 139.758 1.34082C139.758 1.02091 139.885 0.714097 140.11 0.487885C140.336 0.261673 140.642 0.13459 140.961 0.13459H155.953C156.113 0.131913 156.271 0.162915 156.418 0.225585C156.565 0.288255 156.697 0.381194 156.806 0.498373C156.921 0.609957 157.012 0.743975 157.073 0.892161C157.134 1.04035 157.165 1.19955 157.162 1.35997C157.168 1.52113 157.139 1.68162 157.079 1.83111C157.019 1.9806 156.928 2.11578 156.812 2.22794C156.699 2.33915 156.565 2.4264 156.417 2.4845C156.27 2.54261 156.112 2.57039 155.953 2.5662H149.545V23.1359C149.544 23.2957 149.512 23.4538 149.45 23.601C149.388 23.7482 149.298 23.8817 149.184 23.9938C149.071 24.1059 148.936 24.1944 148.789 24.2542C148.641 24.3139 148.483 24.3438 148.323 24.3422H148.349Z" fill="white"/>
</svg>
